<svg width="22" height="22" viewBox="0 0 22 22" fill="none" xmlns="http://www.w3.org/2000/svg">
<path fill-rule="evenodd" clip-rule="evenodd" d="M2.75 2.25H5.25V1H6.75V2.25H14.75V1H16.25V2.25H18.75H19.5V3V7V9.5H18V7.75H3.5V19.75H8.58529V21.25H2.75H2V20.5V7V3V2.25H2.75ZM18 3.75V6.25H3.5V3.75H5.57353H6H15.5H15.9265H18ZM18.5691 9.99989L19.0994 10.5302L21.3721 12.8029L21.9025 13.3333L21.3721 13.8636L14.5539 20.6818L14.4066 20.8291L14.2044 20.8793L11.1808 21.6302L9.9719 21.9304L10.2721 20.7216L11.023 17.698L11.0732 17.4957L11.2206 17.3484L18.0387 10.5302L18.5691 9.99989ZM12.4286 18.2617L12.0281 19.8742L13.6406 19.4738L17.9478 15.1666L16.7358 13.9545L12.4286 18.2617ZM19.7811 13.3333L19.0085 14.1059L17.7964 12.8939L18.5691 12.1212L19.7811 13.3333Z" fill="white"/>
</svg>
