<svg width="32" height="32" viewBox="0 0 32 32" fill="none" xmlns="http://www.w3.org/2000/svg">
<path fill-rule="evenodd" clip-rule="evenodd" d="M7 4H6V5V26.5421V27.0004V28.0004H7H24.1H25.1V27.0004V11.8751V11.4743L24.8231 11.1844L18.2555 4.30925L17.9601 4H17.5324H7ZM8 26.0004V6H16.5324V11.8751V12.8751H17.5324H23.1V26.0004H8ZM21.7618 10.8751L18.5324 7.49454V10.8751H21.7618ZM12.308 19.3854L14.7 21.4668L14.7 15.9998H16.4L16.4 21.4668L18.792 19.3854L19.908 20.6678L16.108 23.9745L15.55 24.46L14.992 23.9745L11.192 20.6678L12.308 19.3854Z" fill="#0F1F3F"/>
</svg>
