<svg width="32" height="32" viewBox="0 0 32 32" fill="none" xmlns="http://www.w3.org/2000/svg">
<path d="M20 3.00049H19V5.00049H20V3.00049ZM28 4.00049H29V3.00049H28V4.00049ZM27 12.0005V13.0005H29V12.0005H27ZM20 5.00049H28V3.00049H20V5.00049ZM27 4.00049V12.0005H29V4.00049H27Z" fill="#0F1F3F"/>
<path d="M12.8785 18.3982L12.1981 19.131L13.6637 20.4919L14.3441 19.7591L12.8785 18.3982ZM27.3441 5.75906L28.0246 5.02627L26.559 3.66537L25.8785 4.39816L27.3441 5.75906ZM14.3441 19.7591L27.3441 5.75906L25.8785 4.39816L12.8785 18.3982L14.3441 19.7591Z" fill="#0F1F3F"/>
<path d="M24.1113 15.5786V28.0786H4.11133V8.07861H16.6113" stroke="#0F1F3F" stroke-width="2"/>
</svg>
