<svg width="24" height="24" viewBox="0 0 24 24" fill="none" xmlns="http://www.w3.org/2000/svg">
<rect width="24" height="24" rx="12" fill="#0B133D" fill-opacity="0.98"/>
<path fill-rule="evenodd" clip-rule="evenodd" d="M6.68745 11.8744C9.3718 10.6043 11.1618 9.767 12.0574 9.36244C14.6146 8.20735 15.146 8.0067 15.4923 8.00007C15.5685 7.99861 15.7388 8.01911 15.8491 8.11633C15.9423 8.19842 15.9679 8.30932 15.9802 8.38715C15.9924 8.46498 16.0077 8.64228 15.9956 8.78081C15.857 10.3621 15.2574 14.1993 14.9523 15.9703C14.8232 16.7197 14.5691 16.971 14.323 16.9955C13.7883 17.049 13.3822 16.6118 12.8643 16.2431C12.0539 15.6661 11.5961 15.307 10.8094 14.744C9.90027 14.0934 10.4896 13.7358 11.0077 13.1514C11.1433 12.9984 13.4994 10.6711 13.545 10.46C13.5507 10.4336 13.556 10.3352 13.5021 10.2832C13.4483 10.2312 13.3688 10.249 13.3115 10.2631C13.2302 10.2832 11.9355 11.2125 9.42743 13.0511C9.05994 13.3252 8.72708 13.4587 8.42885 13.4517C8.10007 13.444 7.46764 13.2498 6.99749 13.0838C6.42083 12.8803 5.96251 12.7727 6.00242 12.4269C6.02321 12.2469 6.25155 12.0627 6.68745 11.8744Z" fill="#F5F8FF"/>
</svg>
